# xmcd
#
# Track frame offsets:
# 150
# 15622
# 29004
# 43116
# 57348
# 68210
# 83092
# 99294
# 116226
# 129488
# 142670
# 158122
# 173159
#
# Disc length: 2511 seconds
#
#
# Revision: 0
# Processed by: cddbd v1.5.2PL0 Copyright (c) Steve Scherf et al.
# Submitted via: Nero 7, 2, 3, 2 
#
DISCID=a909cd0d
DTITLE=The Desert Rose Band - The Desert Rose band
DYEAR=1987
DGENRE=Country
TTITLE0=The Desert Rose band
TTITLE1=The Desert Rose band
TTITLE2=The Desert Rose band
TTITLE3=The Desert Rose band
TTITLE4=The Desert Rose band
TTITLE5=The Desert Rose band
TTITLE6=The Desert Rose band
TTITLE7=The Desert Rose band
TTITLE8=The Desert Rose band
TTITLE9=The Desert Rose band
TTITLE10=The Desert Rose band
TTITLE11=The Desert Rose band
TTITLE12=The Desert Rose band
EXTD=
EXTT0=
EXTT1=
EXTT2=
EXTT3=
EXTT4=
EXTT5=
EXTT6=
EXTT7=
EXTT8=
EXTT9=
EXTT10=
EXTT11=
EXTT12=
PLAYORDER=
